<?xml version="1.0" encoding="UTF-8"?>
<svg id="Layer_1" xmlns="http://www.w3.org/2000/svg" version="1.1" viewBox="0 0 217 46">
  <!-- Generator: Adobe Illustrator 29.8.2, SVG Export Plug-In . SVG Version: 2.1.1 Build 3)  -->
  <defs>
    <style>
      .st0 {
        fill: #717375;
      }

      .st1 {
        fill: #5f6fff;
      }

      .st2 {
        fill: #000b6d;
      }
    </style>
  </defs>
  <path class="st1" d="M28.02,16.66c0,7.38-5.98,13.36-13.36,13.36H5.3c-1.06,0-2.09-.42-2.84-1.17s-1.17-1.77-1.17-2.84v-8.69h5.86c1.34,0,2.72.08,3.86.78.81.5,1.52,1.17,2.05,1.97s.89,1.7,1.05,2.64l.04.26c.03.1.1.2.2.26s.2.1.31.1.22-.03.31-.1c.09-.06.16-.16.2-.26l.04-.26c.23-1.38.88-2.66,1.87-3.65.99-.99,2.27-1.64,3.65-1.87l.26-.04c.1-.03.2-.1.26-.2s.1-.2.1-.31-.03-.22-.1-.31c-.06-.09-.16-.16-.26-.2l-.26-.04c-.95-.16-1.85-.51-2.64-1.05-.8-.53-1.47-1.23-1.97-2.05-.7-1.14-.78-2.52-.78-3.86V3.29c7.07.35,12.7,6.19,12.7,13.35h-.01v.02h-.01Z"/>
  <path class="st1" d="M13.99,3.3v5.86c0,1.34-.08,2.72-.78,3.86-.55.89-1.3,1.64-2.19,2.19-1.14.7-2.52.78-3.86.78H1.29V7.3c0-1.06.42-2.09,1.17-2.84.75-.75,1.77-1.17,2.84-1.17h8.69ZM26.68,30.02c-.35,0-.7-.14-.95-.39s-.39-.59-.39-.95.14-.69.39-.95c.25-.25.59-.39.95-.39s.7.14.95.39.39.59.39.95-.14.69-.39.95c-.25.25-.59.39-.95.39Z"/>
  <path class="st2" d="M49.27,17.83c0,4.94-3.29,9.85-9.9,10.01-6.64-.21-9.96-5.13-9.93-10.06.02-4.88,3.32-9.77,9.93-9.98,6.61.16,9.9,5.09,9.9,10.03ZM39.36,13.38c-2.25,0-4.49,1.49-4.52,4.44.05,2.95,2.29,4.44,4.52,4.44s4.47-1.49,4.52-4.44c0-2.95-2.27-4.44-4.52-4.44Z"/>
  <path class="st2" d="M60.27,27.81c-5.54,0-10.01-4.47-10.01-10.01s4.47-10.03,10.01-10.03c2.25,0,4.05.68,6,2.27,1.17.96,1.35,2.7.41,3.89-.55.68-1.35,1.01-2.15,1.01-.62,0-1.26-.21-1.75-.62-1.2-.96-1.78-1.05-2.54-1.05-2.48,0-4.49,2.01-4.49,4.52s2.01,4.49,4.49,4.49c1.23,0,1.72-.23,2.64-1.28.5-.55,1.17-.89,1.9-.94s1.44.21,1.99.68c1.15,1.01,1.26,2.75.26,3.89-1.96,2.17-3.82,3.16-6.8,3.16h.02s.02.02.02.02Z"/>
  <path class="st2" d="M79.43,25.12c0,1.51-1.23,2.75-2.75,2.75s-2.75-1.23-2.75-2.75v-11.73h-2.98c-1.51,0-2.75-1.23-2.75-2.75s1.23-2.75,2.75-2.75h11.41c1.51,0,2.77,1.23,2.77,2.75s-1.26,2.75-2.77,2.75h-2.95v11.73h.02Z"/>
  <path class="st2" d="M104.89,17.83c0,4.94-3.29,9.85-9.9,10.01-6.64-.21-9.96-5.13-9.93-10.06.02-4.88,3.32-9.77,9.93-9.98,6.61.16,9.9,5.09,9.9,10.03ZM95,13.38c-2.25,0-4.49,1.49-4.52,4.44.05,2.95,2.29,4.44,4.52,4.44s4.47-1.49,4.52-4.44c0-2.95-2.27-4.44-4.52-4.44Z"/>
  <path class="st2" d="M109.38,27.86c-1.51,0-2.75-1.23-2.75-2.75v-14.55c0-1.51,1.23-2.75,2.75-2.75h6.41c3.78,0,6.87,3.09,6.87,6.87,0,2.48-1.35,4.76-3.45,5.95l2.09,2.77c.94,1.21.73,2.93-.46,3.87-.5.37-1.07.57-1.7.57-.84,0-1.65-.39-2.17-1.07l-4.03-5.22h-.78v3.55c0,1.51-1.26,2.75-2.77,2.75h-.01ZM112.15,13.33v2.75h3.64c.76,0,1.35-.62,1.35-1.38s-.6-1.35-1.35-1.35h-3.64v-.02Z"/>
  <path class="st2" d="M140.79,27.81c-5.54,0-10.01-4.47-10.01-10.01s4.47-10.03,10.01-10.03c2.25,0,4.05.68,6,2.27,1.17.96,1.35,2.7.41,3.89-.55.68-1.35,1.01-2.14,1.01-.62,0-1.26-.21-1.74-.62-1.2-.96-1.78-1.05-2.54-1.05-2.48,0-4.49,2.01-4.49,4.52s2.01,4.49,4.49,4.49c1.23,0,1.72-.23,2.64-1.28.5-.55,1.17-.89,1.9-.94s1.44.21,1.99.68c1.15,1.01,1.26,2.75.26,3.89-1.96,2.17-3.81,3.16-6.8,3.16h0v.02h.02Z"/>
  <path class="st2" d="M165.2,25.12c0,1.51-1.23,2.75-2.75,2.75h-8.93c-1.96,0-3.55-1.6-3.55-3.55v-13.67c0-1.51,1.23-2.75,2.75-2.75s2.77,1.23,2.77,2.75v11.7h6.98c1.51,0,2.75,1.26,2.75,2.77h-.02,0Z"/>
  <path class="st2" d="M166.4,25.12v-14.47c0-1.51,1.23-2.75,2.75-2.75s2.77,1.23,2.77,2.75v14.47c0,1.51-1.26,2.75-2.77,2.75s-2.75-1.23-2.75-2.75Z"/>
  <path class="st2" d="M189.86,10.61v14.47c0,1.9-1.51,2.77-2.56,2.77-1.42,0-2.25-.73-2.56-1.35l-4.86-7.37v5.98c0,1.51-1.26,2.75-2.77,2.75s-2.75-1.23-2.75-2.75v-14.47c0-1.7,1.38-2.75,2.66-2.75s2.06.68,2.45,1.33l4.86,8.13v-6.74c.07-1.78,1.44-2.72,2.77-2.72s2.66.94,2.75,2.72h0Z"/>
  <path class="st2" d="M192.31,25.12v-14.47c0-1.51,1.23-2.75,2.75-2.75s2.77,1.23,2.77,2.75v14.47c0,1.51-1.26,2.75-2.77,2.75s-2.75-1.23-2.75-2.75Z"/>
  <path class="st2" d="M209.53,27.81c-5.54,0-10.01-4.47-10.01-10.01s4.47-10.03,10.01-10.03c2.25,0,4.05.68,6,2.27,1.17.96,1.35,2.7.41,3.89-.55.68-1.35,1.01-2.14,1.01-.62,0-1.26-.21-1.74-.62-1.2-.96-1.78-1.05-2.54-1.05-2.48,0-4.49,2.01-4.49,4.52s2.01,4.49,4.49,4.49c1.23,0,1.72-.23,2.64-1.28.5-.55,1.17-.89,1.9-.94s1.44.21,1.99.68c1.15,1.01,1.26,2.75.26,3.89-1.96,2.17-3.81,3.16-6.8,3.16h0v.02h.02Z"/>
  <g>
    <path class="st0" d="M38.29,39.15c-1.11.84-2.71,1.11-3.55,1.11h-2.17c-.7,0-1.24-.55-1.24-1.22v-8.46c0-1.01.85-1.84,1.86-1.84h2.09c3.34,0,5.22,2.66,5.22,5.76,0,2.51-1.2,3.91-2.2,4.65h-.01ZM35.28,31.91h-.72v5.17h.18c.17,0,1.08-.1,1.63-.48.61-.44.9-1.12.9-2.1,0-2.34-1.39-2.59-1.99-2.59Z"/>
    <path class="st0" d="M49.5,33.45v5.32c0,.82-.7,1.51-1.54,1.51-.35,0-.71-.12-.96-.34-.53.23-1.1.34-1.68.34-2.3,0-4.17-1.85-4.17-4.11s1.88-4.13,4.17-4.13c.56,0,1.1.11,1.61.32.28-.26.64-.41,1.04-.41.86,0,1.54.69,1.54,1.51h-.01ZM46.41,36.16c0-.9-.89-1.1-1.11-1.1-.61,0-1.1.49-1.1,1.1s.49,1.08,1.1,1.08,1.11-.48,1.11-1.08Z"/>
    <path class="st0" d="M58.33,37.83c0,.59-.49,2.65-3.96,2.65-3.05,0-3.55-1.92-3.6-2.07-.14-.59.25-1.37,1.04-1.37,1.18,0,.58,1.07,2.56,1.07.49,0,1.4.05,1.4-.4,0-1.34-5.27-.01-5.27-3.02,0-1.69,1.47-2.87,3.56-2.87,1.53,0,2.48.66,3,1.21.29.32.38.74.25,1.14-.14.4-.47.69-.9.77h-.03c-1,.01-1.35-.74-2.31-.74-.17,0-1,.03-1,.49,0,1.56,5.27-.41,5.27,3.14h-.01Z"/>
    <path class="st0" d="M67.33,38.77c0,.82-.7,1.51-1.53,1.51s-1.53-.69-1.53-1.51v-2.02c0-.81-.21-1.69-.82-1.69s-1.1.49-1.1,1.1v2.6c0,.82-.7,1.51-1.54,1.51s-1.53-.69-1.53-1.51v-8.47c0-.85.7-1.52,1.53-1.52s1.54.69,1.54,1.52v1.89c.35-.1.72-.15,1.1-.15,3.05,0,3.87,2.95,3.88,4.67v2.07h0Z"/>
    <path class="st0" d="M76.83,36.16c0,2.26-1.88,4.11-4.19,4.11-.57,0-1.15-.12-1.67-.34-.28.23-.61.34-.97.34-.85,0-1.53-.69-1.53-1.51v-8.47c0-.85.7-1.52,1.53-1.52s1.54.69,1.54,1.52v1.89c.35-.1.72-.15,1.1-.15,3.09,0,4.19,2.23,4.19,4.13ZM73.76,36.16c0-.4-.32-1.1-1.11-1.1-.61,0-1.1.49-1.1,1.1s.49,1.08,1.1,1.08,1.11-.48,1.11-1.08Z"/>
    <path class="st0" d="M85.83,36.18c0,2.26-1.88,4.11-4.19,4.11s-4.17-1.85-4.17-4.11,1.88-4.13,4.17-4.13c3.05,0,4.19,2.54,4.19,4.13ZM82.76,36.18c0-.77-.33-1.1-1.11-1.1-.61,0-1.1.49-1.1,1.1s.49,1.08,1.1,1.08,1.11-.48,1.11-1.08Z"/>
    <path class="st0" d="M94.82,33.45v5.32c0,.82-.7,1.51-1.54,1.51-.35,0-.71-.12-.96-.34-.53.23-1.1.34-1.68.34-2.3,0-4.17-1.85-4.17-4.11s1.88-4.13,4.17-4.13c.56,0,1.1.11,1.61.32.28-.26.64-.41,1.04-.41.86,0,1.54.69,1.54,1.51h-.01ZM91.75,36.16c0-.9-.89-1.1-1.11-1.1-.61,0-1.1.49-1.1,1.1s.49,1.08,1.1,1.08,1.11-.48,1.11-1.08Z"/>
    <path class="st0" d="M103.39,34.39c-.03.41-.21.77-.53,1.04-.31.26-.71.38-1.11.34-.4-.03-.78-.21-1.04-.52-.13-.14-.26-.19-.45-.19-.61,0-1.1.49-1.1,1.1v2.6c0,.82-.7,1.51-1.54,1.51s-1.53-.69-1.53-1.51v-5.22c0-.85.7-1.52,1.53-1.52.36,0,.71.14.97.34.51-.23,1.1-.34,1.67-.34,1.08,0,2.07.45,2.78,1.26.26.3.38.7.35,1.1h0Z"/>
    <path class="st0" d="M112.21,30.29v8.47c0,.82-.7,1.51-1.54,1.51-.35,0-.71-.12-.96-.34-.53.23-1.1.34-1.68.34-2.3,0-4.17-1.85-4.17-4.11,0-2.85,2.45-4.13,4.17-4.13.38,0,.77.05,1.11.15v-1.89c0-.85.7-1.52,1.53-1.52s1.54.69,1.54,1.52ZM109.13,36.16c0-.6-.5-1.1-1.11-1.1s-1.1.49-1.1,1.1.49,1.08,1.1,1.08,1.11-.48,1.11-1.08Z"/>
    <path class="st0" d="M127.1,32.65c0,2.19-1.81,3.96-4.02,3.96h-2.13v2.06c0,.88-.74,1.59-1.63,1.59s-1.61-.71-1.61-1.59v-8.4c0-.88.72-1.59,1.61-1.59h3.76c2.23,0,4.02,1.78,4.02,3.96h0ZM123.07,31.87h-2.13v1.59h2.13c.45,0,.79-.36.79-.8s-.35-.78-.79-.78h0Z"/>
    <path class="st0" d="M135.8,33.45v5.32c0,.82-.7,1.51-1.54,1.51-.35,0-.71-.12-.96-.34-.53.23-1.1.34-1.68.34-2.3,0-4.17-1.85-4.17-4.11s1.88-4.13,4.17-4.13c.56,0,1.1.11,1.61.32.28-.26.64-.41,1.04-.41.86,0,1.54.69,1.54,1.51h-.01ZM132.71,36.16c0-.9-.89-1.1-1.11-1.1-.61,0-1.1.49-1.1,1.1s.49,1.08,1.1,1.08,1.11-.48,1.11-1.08Z"/>
    <path class="st0" d="M145.1,36.74v2.04c0,.82-.7,1.51-1.53,1.51s-1.53-.69-1.53-1.51v-2.02c0-.81-.21-1.69-.83-1.69s-1.1.49-1.1,1.1v2.6c0,.82-.7,1.51-1.54,1.51s-1.53-.69-1.53-1.51v-5.22c0-.85.7-1.52,1.53-1.52.36,0,.71.14.97.34.51-.23,1.1-.34,1.67-.34,1.18,0,2.11.38,2.78,1.08,1.22,1.32,1.13,3.32,1.1,3.62h.01Z"/>
    <path class="st0" d="M151.38,36.93h-1.96s.08.32.67.32c1.15,0,2.77-.34,2.77,1.03,0,.52-.26,2-2.77,2-2.92,0-4.17-2.1-4.17-3.95,0-3.29,3.03-4.3,4.17-4.3,1.02,0,3.45.58,3.45,3.47,0,.66-.58,1.43-2.16,1.43h0ZM151.13,35.42s-.03-.89-.96-.89-.96.89-.96.89h1.93-.01Z"/>
    <path class="st0" d="M157.59,30.29v8.47c0,.82-.7,1.51-1.54,1.51s-1.53-.69-1.53-1.51v-8.47c0-.85.7-1.52,1.53-1.52s1.54.69,1.54,1.52Z"/>
  </g>
</svg>