<?xml version="1.0" encoding="UTF-8"?>
<svg id="Layer_1" xmlns="http://www.w3.org/2000/svg" version="1.1" viewBox="0 0 24 24">
  <!-- Generator: Adobe Illustrator 29.8.2, SVG Export Plug-In . SVG Version: 2.1.1 Build 3)  -->
  <defs>
    <style>
      .st0 {
        fill: #1c274c;
        stroke: #1c274c;
        stroke-miterlimit: 10;
        stroke-width: .5px;
      }
    </style>
  </defs>
  <path class="st0" d="M18.34,13.64c.7-.12,1.07.16,1.33.78.29.7.44,1.52.76,2.22.14.1,2.16-.02,2.57.04,1.01.14,1.28,1.35.52,2.03-.58.5-1.36.87-1.94,1.39-.05.12.76,2.12.78,2.59.02.88-.82,1.36-1.58,1.02l-2.17-1.52-2.23,1.57c-.96.25-1.66-.42-1.42-1.4.18-.75.58-1.5.7-2.26-.04-.11-1.68-1.18-1.93-1.39-.8-.71-.43-1.9.64-2.02.79-.08,1.67.08,2.48-.02.1-.07.65-2.09.82-2.42.14-.26.41-.53.71-.58v-.02ZM22.83,17.82h-2.85c-.17,0-.37-.2-.45-.36-.36-.7-.52-1.8-.86-2.56-.02-.05-.03-.13-.11-.13l-.9,2.76c-.02.11-.33.29-.41.29h-2.85l2.42,1.84v.39l-.86,2.61,2.34-1.64c.29-.14.42-.09.69.06.74.43,1.45,1.15,2.22,1.57.08-.1-.76-2.2-.83-2.56s-.03-.5.25-.73l2.18-1.56v.02Z"/>
  <path class="st0" d="M9.83.2c4.86-.46,7.9,5.11,4.85,9.04-2.43,3.14-7.35,2.6-9.11-.97S6.07.56,9.83.2ZM13.5,2.55c-1.98-2-5.36-1.55-6.78.89-2.01,3.45,1.05,7.6,4.83,6.63,3.27-.83,4.35-5.1,1.95-7.51Z"/>
  <path class="st0" d="M9.03,13.48c.81-.05,1.85-.07,2.65-.02.5.03,1.08.09.92.78-.13.58-1,.32-1.39.31-2.93-.05-5.74.44-8.43,1.63-.29.13-1.44.64-1.55.86-.03.07-.06.13-.06.21.09,1.29-.12,2.75,0,4.03.03.33.17.58.51.62h10.48c.74.21.55,1.15-.21,1.14-3.3-.19-6.85.24-10.12,0-.82-.06-1.63-.54-1.72-1.45-.15-1.43.11-3.12,0-4.57.12-.9.83-1.19,1.52-1.55,2.19-1.09,4.96-1.86,7.41-2.01h0Z"/>
</svg>