<?xml version="1.0" encoding="UTF-8"?>
<svg id="Layer_1" xmlns="http://www.w3.org/2000/svg" version="1.1" viewBox="0 0 217 46">
  <!-- Generator: Adobe Illustrator 29.8.2, SVG Export Plug-In . SVG Version: 2.1.1 Build 3)  -->
  <defs>
    <style>
      .st0 {
        fill: #5f6fff;
      }

      .st1 {
        fill: #000b6d;
      }
    </style>
  </defs>
  <path class="st0" d="M28.02,21.84c0,7.38-5.98,13.36-13.36,13.36H5.3c-1.06,0-2.09-.42-2.84-1.17-.75-.75-1.17-1.77-1.17-2.84v-8.69h5.86c1.34,0,2.72.08,3.86.78.81.5,1.52,1.17,2.05,1.97.53.8.89,1.7,1.05,2.64l.04.26c.03.1.1.2.2.26s.2.1.31.1.22-.03.31-.1c.09-.06.16-.16.2-.26l.04-.26c.23-1.38.88-2.66,1.87-3.65.99-.99,2.27-1.64,3.65-1.87l.26-.04c.1-.03.2-.1.26-.2s.1-.2.1-.31-.03-.22-.1-.31c-.06-.09-.16-.16-.26-.2l-.26-.04c-.95-.16-1.85-.51-2.64-1.05-.8-.53-1.47-1.23-1.97-2.05-.7-1.14-.78-2.52-.78-3.86v-5.84c7.07.35,12.7,6.19,12.7,13.35h-.01Z"/>
  <path class="st0" d="M13.99,8.48v5.86c0,1.34-.08,2.72-.78,3.86-.55.89-1.3,1.64-2.19,2.19-1.14.7-2.52.78-3.86.78H1.29v-8.69c0-1.06.42-2.09,1.17-2.84.75-.75,1.77-1.17,2.84-1.17h8.69ZM26.68,35.2c-.35,0-.7-.14-.95-.39-.25-.25-.39-.59-.39-.95s.14-.69.39-.95c.25-.25.59-.39.95-.39s.7.14.95.39c.25.25.39.59.39.95s-.14.69-.39.95c-.25.25-.59.39-.95.39Z"/>
  <path class="st1" d="M49.27,23.01c0,4.94-3.29,9.85-9.9,10.01-6.64-.21-9.96-5.13-9.93-10.06.02-4.88,3.32-9.77,9.93-9.98,6.61.16,9.9,5.09,9.9,10.03ZM39.36,18.56c-2.25,0-4.49,1.49-4.52,4.44.05,2.95,2.29,4.44,4.52,4.44s4.47-1.49,4.52-4.44c0-2.95-2.27-4.44-4.52-4.44Z"/>
  <path class="st1" d="M60.27,32.99c-5.54,0-10.01-4.47-10.01-10.01s4.47-10.03,10.01-10.03c2.25,0,4.05.68,6,2.27,1.17.96,1.35,2.7.41,3.89-.55.68-1.35,1.01-2.15,1.01-.62,0-1.26-.21-1.75-.62-1.2-.96-1.78-1.05-2.54-1.05-2.48,0-4.49,2.01-4.49,4.52s2.01,4.49,4.49,4.49c1.23,0,1.72-.23,2.64-1.28.5-.55,1.17-.89,1.9-.94s1.44.21,1.99.68c1.15,1.01,1.26,2.75.26,3.89-1.96,2.17-3.82,3.16-6.8,3.16h.02Z"/>
  <path class="st1" d="M79.43,30.3c0,1.51-1.23,2.75-2.75,2.75s-2.75-1.23-2.75-2.75v-11.73h-2.98c-1.51,0-2.75-1.23-2.75-2.75s1.23-2.75,2.75-2.75h11.41c1.51,0,2.77,1.23,2.77,2.75s-1.26,2.75-2.77,2.75h-2.95v11.73h.01Z"/>
  <path class="st1" d="M104.89,23.01c0,4.94-3.29,9.85-9.9,10.01-6.64-.21-9.96-5.13-9.93-10.06.02-4.88,3.32-9.77,9.93-9.98,6.61.16,9.9,5.09,9.9,10.03ZM95,18.56c-2.25,0-4.49,1.49-4.52,4.44.05,2.95,2.29,4.44,4.52,4.44s4.47-1.49,4.52-4.44c0-2.95-2.27-4.44-4.52-4.44Z"/>
  <path class="st1" d="M109.38,33.04c-1.51,0-2.75-1.23-2.75-2.75v-14.55c0-1.51,1.23-2.75,2.75-2.75h6.41c3.78,0,6.87,3.09,6.87,6.87,0,2.48-1.35,4.76-3.45,5.95l2.09,2.77c.94,1.21.73,2.93-.46,3.87-.5.37-1.07.57-1.7.57-.84,0-1.65-.39-2.17-1.07l-4.03-5.22h-.78v3.55c0,1.51-1.26,2.75-2.77,2.75h0ZM112.15,18.51v2.75h3.64c.76,0,1.35-.62,1.35-1.38s-.6-1.35-1.35-1.35h-3.64Z"/>
  <path class="st1" d="M140.79,32.99c-5.54,0-10.01-4.47-10.01-10.01s4.47-10.03,10.01-10.03c2.25,0,4.05.68,6,2.27,1.17.96,1.35,2.7.41,3.89-.55.68-1.35,1.01-2.14,1.01-.62,0-1.26-.21-1.74-.62-1.2-.96-1.78-1.05-2.54-1.05-2.48,0-4.49,2.01-4.49,4.52s2.01,4.49,4.49,4.49c1.23,0,1.72-.23,2.64-1.28.5-.55,1.17-.89,1.9-.94s1.44.21,1.99.68c1.15,1.01,1.26,2.75.26,3.89-1.96,2.17-3.81,3.16-6.8,3.16h.01Z"/>
  <path class="st1" d="M165.2,30.3c0,1.51-1.23,2.75-2.75,2.75h-8.93c-1.96,0-3.55-1.6-3.55-3.55v-13.67c0-1.51,1.23-2.75,2.75-2.75s2.77,1.23,2.77,2.75v11.7h6.98c1.51,0,2.75,1.26,2.75,2.77h-.01Z"/>
  <path class="st1" d="M166.4,30.3v-14.47c0-1.51,1.23-2.75,2.75-2.75s2.77,1.23,2.77,2.75v14.47c0,1.51-1.26,2.75-2.77,2.75s-2.75-1.23-2.75-2.75Z"/>
  <path class="st1" d="M189.86,15.79v14.47c0,1.9-1.51,2.77-2.56,2.77-1.42,0-2.25-.73-2.56-1.35l-4.86-7.37v5.98c0,1.51-1.26,2.75-2.77,2.75s-2.75-1.23-2.75-2.75v-14.47c0-1.7,1.38-2.75,2.66-2.75s2.06.68,2.45,1.33l4.86,8.13v-6.74c.07-1.78,1.44-2.72,2.77-2.72s2.66.94,2.75,2.72h.01Z"/>
  <path class="st1" d="M192.31,30.3v-14.47c0-1.51,1.23-2.75,2.75-2.75s2.77,1.23,2.77,2.75v14.47c0,1.51-1.26,2.75-2.77,2.75s-2.75-1.23-2.75-2.75Z"/>
  <path class="st1" d="M209.53,32.99c-5.54,0-10.01-4.47-10.01-10.01s4.47-10.03,10.01-10.03c2.25,0,4.05.68,6,2.27,1.17.96,1.35,2.7.41,3.89-.55.68-1.35,1.01-2.14,1.01-.62,0-1.26-.21-1.74-.62-1.2-.96-1.78-1.05-2.54-1.05-2.48,0-4.49,2.01-4.49,4.52s2.01,4.49,4.49,4.49c1.23,0,1.72-.23,2.64-1.28.5-.55,1.17-.89,1.9-.94s1.44.21,1.99.68c1.15,1.01,1.26,2.75.26,3.89-1.96,2.17-3.81,3.16-6.8,3.16h.01Z"/>
</svg>