<?xml version="1.0" encoding="UTF-8"?>
<svg id="Layer_1" xmlns="http://www.w3.org/2000/svg" version="1.1" viewBox="0 0 46 46">
  <!-- Generator: Adobe Illustrator 29.8.2, SVG Export Plug-In . SVG Version: 2.1.1 Build 3)  -->
  <defs>
    <style>
      .st0 {
        font-family: QilkaBold, Qilka;
        font-size: 30.04px;
      }

      .st0, .st1 {
        fill: #000b6d;
      }

      .st2 {
        fill: #5f6fff;
      }
    </style>
  </defs>
  <g>
    <path class="st2" d="M23.66,21.91c0,6.38-5.3,11.56-11.83,11.56H3.55c-.94,0-1.84-.37-2.51-1.02-.67-.65-1.04-1.53-1.04-2.45v-7.51h5.19c1.18,0,2.41.07,3.42.68.72.43,1.34,1.02,1.81,1.7.47.69.79,1.47.92,2.29l.04.22c.03.09.09.17.17.23.08.06.18.09.28.09s.19-.03.28-.09c.08-.06.14-.14.17-.23l.04-.22c.2-1.2.78-2.3,1.65-3.16.88-.86,2.01-1.42,3.23-1.62l.23-.04c.09-.03.17-.09.23-.17.06-.08.09-.17.09-.27s-.03-.19-.09-.27c-.06-.08-.14-.14-.23-.17l-.23-.04c-.84-.13-1.63-.44-2.34-.9-.7-.46-1.3-1.07-1.74-1.77-.62-.98-.69-2.18-.69-3.34v-5.06c6.26.3,11.24,5.36,11.24,11.55Z"/>
    <path class="st2" d="M11.24,10.35v5.07c0,1.16-.07,2.36-.69,3.34-.49.77-1.15,1.42-1.94,1.89-1.01.61-2.23.68-3.42.68H0v-7.51C0,12.9.37,12.01,1.04,11.36c.67-.65,1.57-1.02,2.51-1.02h7.69ZM23.7,33.47c-.31,0-.61-.12-.84-.34-.22-.22-.35-.51-.35-.82s.12-.6.35-.82c.22-.22.52-.34.84-.34s.61.12.84.34c.22.22.35.51.35.82s-.12.6-.35.82c-.22.22-.52.34-.84.34Z"/>
  </g>
  <text class="st0" transform="translate(23.7 33.47) scale(1.02 1)"><tspan x="0" y="0">C</tspan></text>
  <path class="st1" d="M44.82,33.47c-.31,0-.61-.12-.84-.34-.22-.22-.35-.51-.35-.82s.12-.6.35-.82c.22-.22.52-.34.84-.34s.61.12.84.34c.22.22.35.51.35.82s-.12.6-.35.82c-.22.22-.52.34-.84.34Z"/>
</svg>